# xmcd CD database file
#
# Track frame offsets:
#	150
#	21204
#	41684
#	62769
#	85948
#	113172
#	142718
#	163169
#	183865
#	212095
#	234097
#
# Disc length: 3593 seconds
#
# Revision: 0
# Processed by: cddbd v1.5.2PL0 Copyright (c) Steve Scherf et al.
# Submitted via: CDex 1.77
#
DISCID=880e070b
DTITLE=Moutin Factory Quintet - Mythical River
DYEAR=2019
DGENRE=Jazz
TTITLE0=Forward
TTITLE1=No Human Is Illegal
TTITLE2=Fight And Anger
TTITLE3=Tears And Despair
TTITLE4=Summer Twilight
TTITLE5=Echoing
TTITLE6=Wayne's Medley
TTITLE7=Trauma
TTITLE8=Blessed and Cursed
TTITLE9=In Love
TTITLE10=Take it Easy
EXTD=YEAR: 2019
EXTT0=
EXTT1=
EXTT2=
EXTT3=
EXTT4=
EXTT5=
EXTT6=
EXTT7=
EXTT8=
EXTT9=
EXTT10=
PLAYORDER=
